<?xml version="1.0" standalone="no"?>
<!DOCTYPE svg PUBLIC "-//W3C//DTD SVG 20010904//EN"
 "http://www.w3.org/TR/2001/REC-SVG-20010904/DTD/svg10.dtd">
<svg version="1.0" xmlns="http://www.w3.org/2000/svg"
 width="275.000000pt" height="275.000000pt" viewBox="0 0 275.000000 275.000000"
 preserveAspectRatio="xMidYMid meet">
<metadata>
Created by potrace 1.14, written by Peter Selinger 2001-2017
</metadata>
<g transform="translate(0.000000,275.000000) scale(0.100000,-0.100000)"
fill="#000000" stroke="none">
<path d="M845 2718 c-3 -7 -30 -132 -60 -278 -31 -146 -58 -273 -61 -282 -4
-15 -23 -18 -141 -20 l-137 -3 -38 -195 c-20 -107 -40 -207 -43 -222 l-6 -27
133 -3 134 -3 -41 -175 c-23 -96 -44 -187 -48 -202 l-7 -28 -120 0 c-116 0
-120 -1 -125 -23 -13 -55 -85 -408 -85 -417 0 -6 47 -10 115 -10 72 0 115 -4
115 -10 0 -6 -25 -129 -55 -273 -30 -144 -55 -268 -55 -274 0 -10 54 -13 240
-13 132 0 240 2 240 5 0 5 104 496 115 542 5 23 6 23 206 23 l201 0 -5 -22
c-17 -65 -107 -513 -107 -529 0 -18 12 -19 233 -19 l234 0 63 285 63 285 126
0 126 0 56 225 56 225 -133 0 -134 0 7 28 c3 15 25 106 48 202 l41 175 115 3
115 3 47 212 c26 117 47 218 47 225 0 9 -29 12 -110 12 -81 0 -110 3 -110 13
0 10 98 482 115 555 l5 22 -244 0 c-186 0 -245 -3 -248 -12 -3 -7 -31 -140
-64 -295 l-59 -283 -198 0 -197 0 7 28 c3 15 32 147 63 295 l56 267 -243 0
c-186 0 -245 -3 -248 -12z m661 -1050 c-3 -13 -25 -105 -48 -205 l-43 -183
-197 0 c-160 0 -198 3 -198 14 0 12 75 342 86 379 5 15 24 17 206 17 l200 0
-6 -22z"/>
<path d="M1135 1618 c-30 -130 -65 -287 -65 -292 0 -3 22 -6 50 -6 55 0 52 -5
80 125 6 28 15 67 21 88 l10 37 103 0 c99 0 104 1 110 23 13 48 15 47 -149 47
-152 0 -155 0 -160 -22z"/>
<path d="M1255 1498 c-27 -120 -35 -155 -35 -165 0 -9 16 -13 49 -13 45 0 49
2 55 28 25 102 25 102 56 102 17 0 30 1 30 3 0 1 4 17 9 35 l10 32 -85 0 c-79
0 -84 -1 -89 -22z"/>
<path d="M1312 2408 c-23 -112 -42 -209 -42 -215 0 -9 16 -13 48 -13 l48 0 45
215 45 215 -51 0 -51 0 -42 -202z"/>
<path d="M2235 2598 c-5 -17 -85 -402 -85 -411 0 -4 23 -7 50 -7 28 0 50 2 50
4 0 4 76 366 85 404 5 21 2 22 -45 22 -32 0 -52 -5 -55 -12z"/>
<path d="M1447 2358 c-15 -73 -30 -143 -33 -155 -6 -22 -3 -23 45 -23 44 0 51
3 56 23 3 12 18 82 34 155 l28 132 -52 0 -51 0 -27 -132z"/>
<path d="M2355 2478 c-2 -7 -17 -77 -33 -155 l-29 -142 23 -5 c31 -8 47 -41
41 -82 -3 -19 -2 -34 4 -34 5 0 9 2 9 4 0 4 76 366 85 404 5 21 2 22 -45 22
-32 0 -52 -5 -55 -12z"/>
<path d="M2325 1943 c-48 -220 -64 -277 -81 -290 -12 -9 -51 -13 -115 -13 -84
0 -98 -2 -103 -17 -12 -42 -66 -276 -66 -289 0 -10 14 -14 49 -14 l49 0 29
123 29 122 115 3 115 3 47 212 c26 117 47 218 47 225 0 8 -17 12 -49 12 l-49
0 -17 -77z"/>
<path d="M2445 1823 c-48 -220 -64 -277 -81 -290 -12 -9 -51 -13 -116 -13
l-97 0 -10 -37 c-5 -21 -16 -66 -24 -100 l-14 -61 36 -4 c20 -3 42 -7 50 -9
10 -3 18 16 30 66 l16 70 116 3 115 3 47 212 c26 117 47 218 47 225 0 8 -17
12 -49 12 l-49 0 -17 -77z"/>
<path d="M490 1628 c0 -7 -3 -23 -6 -35 -6 -21 -3 -23 35 -23 26 0 41 5 41 13
0 6 3 22 6 35 6 20 3 22 -35 22 -26 0 -41 -5 -41 -12z"/>
<path d="M2145 1008 c-21 -84 -44 -165 -52 -180 -16 -34 -31 -37 -157 -41
l-99 -2 -57 -255 c-58 -262 -68 -293 -96 -304 -8 -3 -89 -6 -179 -6 -176 0
-175 0 -175 -56 l0 -24 233 0 234 0 63 285 63 285 126 0 126 0 56 225 56 225
-52 0 -53 0 -37 -152z"/>
<path d="M2265 888 c-21 -84 -44 -165 -52 -180 -16 -34 -31 -37 -157 -41 l-99
-2 -57 -255 c-58 -262 -68 -293 -96 -304 -8 -3 -89 -6 -179 -6 -176 0 -175 0
-175 -56 l0 -24 233 0 234 0 63 285 63 285 126 0 126 0 56 225 56 225 -52 0
-53 0 -37 -152z"/>
<path d="M326 759 c-9 -47 -8 -49 19 -49 17 0 25 6 25 18 0 9 3 27 6 40 5 18
2 22 -19 22 -19 0 -26 -6 -31 -31z"/>
<path d="M901 538 c-55 -259 -68 -301 -96 -312 -9 -3 -92 -6 -185 -6 -165 0
-168 0 -174 -23 -16 -60 -29 -57 234 -57 132 0 240 2 240 5 0 5 104 496 115
543 5 21 10 22 110 22 95 0 104 2 109 20 3 11 9 29 12 40 5 19 1 20 -153 20
l-158 0 -54 -252z"/>
<path d="M1021 418 c-55 -259 -68 -301 -96 -312 -9 -3 -92 -6 -185 -6 -165 0
-168 0 -174 -23 -16 -60 -29 -57 234 -57 132 0 240 2 240 5 0 5 104 496 115
543 4 17 12 22 39 22 30 0 34 4 40 31 3 17 6 35 6 40 0 5 -37 9 -83 9 l-82 0
-54 -252z"/>
</g>
</svg>
